<?xml version="1.0" encoding="UTF-8" standalone="no"?>
<svg
   xmlns:dc="http://purl.org/dc/elements/1.1/"
   xmlns:cc="http://creativecommons.org/ns#"
   xmlns:rdf="http://www.w3.org/1999/02/22-rdf-syntax-ns#"
   xmlns:svg="http://www.w3.org/2000/svg"
   xmlns="http://www.w3.org/2000/svg"
   version="1.1"
   id="svg4218"
   viewBox="0 0 78.958212 86.079955"
   height="24.293676mm"
   width="22.283762mm">
  <defs
     id="defs4220" />
  <metadata
     id="metadata4223">
    <rdf:RDF>
      <cc:Work
         rdf:about="">
        <dc:format>image/svg+xml</dc:format>
        <dc:type
           rdf:resource="http://purl.org/dc/dcmitype/StillImage" />
        <dc:title></dc:title>
      </cc:Work>
    </rdf:RDF>
  </metadata>
  <g
     transform="translate(-91.949468,-235.03651)"
     id="layer1">
    <g
       id="Happy">
      <rect
         y="235.00911"
         x="91.379219"
         height="86.677605"
         width="80.119759"
         id="happy"
         style="opacity:1;fill:#ffffff;fill-opacity:1;stroke:none;stroke-width:0;stroke-opacity:1" />
      <path
         style="opacity:1;fill:none;fill-rule:evenodd;stroke:#000000;stroke-width:1px;stroke-linecap:butt;stroke-linejoin:miter;stroke-opacity:1"
         d="m 147.90007,264.95333 c 0,0 4.66874,5.74602 9.98642,2.67585"
         id="path4243" />
      <path
         fill="#ff0000"   d="m 131.98241,299.47094 c 28.20354,-19.94976 34.0737,-29.4022 34.6199,-42.86615 0.4262,-10.5061 -9.47746,-20.89906 -19.71522,-20.89906 -10.23777,0 -14.29825,5.49934 -14.29825,5.49934 0,0 -2.72742,-5.66856 -10.9126,-5.66856 -13.62215,0 -21.910543,10.57568 -21.91574,21.74399 -0.0052,11.16831 15.50486,31.25771 32.22191,42.19044 z"
         id="path4177" />
      <path
         style="opacity:1;fill:#ff0000;fill-rule:evenodd;stroke:#000000;stroke-width:1px;stroke-linecap:butt;stroke-linejoin:miter;stroke-opacity:1"
         d="m 106.34663,275.20453 c 0,0 -9.046052,5.26316 -9.046052,9.04605 0,3.7829 26.407622,5.19542 22.055392,12.73369 -4.35222,7.53827 3.93145,1.0821 3.93145,1.0821 l 0,-5.75658 c 0,0 -11.10845,-3.78089 -11.10845,-6.41347 0,-2.63258 1.56898,-2.30363 1.56898,-2.30363 z"
         id="path4182" />
      <path
         fill="#ff0000"    d="m 160.294,275.53348 c 2.10836,-0.0767 4.23438,0.75895 5.7262,2.25077 1.49183,1.49182 2.32749,3.61784 2.25078,5.7262 -0.0528,1.45232 -0.52371,2.87991 -1.29814,4.10966 -0.77444,1.22975 -1.84688,2.26297 -3.07508,3.03986 -2.45639,1.55379 -5.47693,2.0552 -8.3735,1.8143 -2.1336,-0.17745 -4.29885,-0.73357 -6.38422,-0.24883 -1.04268,0.24238 -2.04532,0.76259 -2.72267,1.59153 -0.33867,0.41447 -0.59139,0.90186 -0.71395,1.42288 -0.12256,0.52102 -0.11272,1.07542 0.0488,1.5857 0.19876,0.62779 0.6124,1.16227 0.89996,1.75466 0.14378,0.2962 0.25702,0.61131 0.28952,0.93895 0.0325,0.32764 -0.0202,0.6698 -0.18888,0.95254 -0.1384,0.23195 -0.35146,0.41673 -0.59629,0.53082 -0.24483,0.11408 -0.52022,0.15839 -0.78953,0.13776 -0.53862,-0.0413 -1.03677,-0.33983 -1.39374,-0.74529 -0.35696,-0.40546 -0.58403,-0.91082 -0.73657,-1.42903 -0.15255,-0.51822 -0.23511,-1.0539 -0.33582,-1.58463 -0.14522,-0.76528 -0.32931,-1.52631 -0.3847,-2.30327 -0.0554,-0.77696 0.0258,-1.58353 0.3847,-2.27485 0.23908,-0.46051 0.59522,-0.85578 1.01071,-1.16658 0.4155,-0.3108 0.88944,-0.53882 1.38282,-0.69946 0.98677,-0.32128 2.03847,-0.37411 3.07585,-0.40165 1.33083,-0.0353 2.69058,-0.0379 3.9484,-0.47412 0.62891,-0.2181 1.22573,-0.54623 1.70822,-1.00481 0.48249,-0.45858 0.84645,-1.05235 0.9806,-1.70434 0.1749,-0.85005 -0.0639,-1.77546 -0.62835,-2.4347 -0.56443,-0.65925 -1.442,-1.03779 -2.30885,-0.99592 l 8.22369,-8.38815 z"
         id="path4188" />
      <path
         style="opacity:1;fill:#ff0000;fill-rule:evenodd;stroke:#000000;stroke-width:1px;stroke-linecap:butt;stroke-linejoin:miter;stroke-opacity:1"
         d="m 129.20848,298.23085 c 0,0 -5.78223,18.06324 -11.27921,19.53615 -5.49698,1.47291 -21.355987,5.29245 -24.411587,0 -3.055599,-5.29246 1.212704,-12.08413 3.237931,-12.08413 2.025227,0 17.624876,1.99904 19.623916,0 1.99904,-1.99904 9.04605,-11.07045 9.04605,-11.07045 l 4.44079,3.94737 z"
         id="path4192" />
      <path
         style="opacity:1;fill:#ff0000;fill-rule:evenodd;stroke:#000000;stroke-width:1px;stroke-linecap:butt;stroke-linejoin:miter;stroke-opacity:1"
         d="m 134.80058,297.73742 c 0,0 7.64976,18.70018 11.37246,19.69768 3.72269,0.99749 19.50477,6.62806 23.33149,0 3.82671,-6.62807 -5.40151,-11.56186 -10.26002,-10.26002 -4.85851,1.30183 -13.75314,-2.85871 -13.75314,-2.85871 0,0 -6.0851,-8.35115 -5.59189,-9.68544 0.49321,-1.3343 -5.0989,3.10649 -5.0989,3.10649 z"
         id="path4194" />
      <path
         style="opacity:1;fill:none;fill-rule:evenodd;stroke:#000000;stroke-width:1;stroke-linecap:butt;stroke-linejoin:miter;stroke-opacity:1;stroke-miterlimit:4;stroke-dasharray:none"
         d="m 118.50375,244.39832 c 0.88135,-0.56462 1.93399,-1.48256 2.85022,-1.84992 2.92403,-1.17238 6.15398,-0.9206 6.15398,-0.9206"
         id="path4317" />
      <path
         style="opacity:1;fill:none;fill-rule:evenodd;stroke:#000000;stroke-width:1px;stroke-linecap:butt;stroke-linejoin:miter;stroke-opacity:1"
         d="m 138.30144,242.03183 c 0,0 2.89218,-1.19608 4.96386,0 2.07167,1.19608 2.48192,2.36649 2.48192,2.36649"
         id="path4319" />
      <ellipse
         style="opacity:1;fill:#000000;fill-opacity:1;stroke:#000000;stroke-width:0;stroke-linecap:square;stroke-linejoin:miter;stroke-miterlimit:0;stroke-dasharray:none;stroke-opacity:1"
         id="path4287"
         cx="250.49332"
         cy="-129.52098"
         rx="5.2241807"
         ry="2.3076413"
         transform="matrix(-0.01827131,0.99983307,-0.99996367,-0.00852379,0,0)" />
      <ellipse
         style="opacity:1;fill:#000000;fill-opacity:1;stroke:#000000;stroke-width:0;stroke-linecap:square;stroke-linejoin:miter;stroke-miterlimit:0;stroke-dasharray:none;stroke-opacity:1"
         id="path4287-4"
         cx="250.77164"
         cy="-144.27388"
         rx="5.2241807"
         ry="2.3076413"
         transform="matrix(-0.01827131,0.99983307,-0.99996367,-0.00852379,0,0)" />
      <path
         style="opacity:1;fill:none;fill-rule:evenodd;stroke:#000000;stroke-width:1px;stroke-linecap:butt;stroke-linejoin:miter;stroke-opacity:1"
         d="m 134.23035,265.3552 c 0,0 -2.14728,0.78598 -2.9673,0.48161 -0.82002,-0.30438 -1.41342,-1.03693 -1.67277,-1.81274 -0.25936,-0.77581 -0.068,-1.92707 1.25892,-2.78127 1.32692,-0.85421 2.48201,-0.2829 2.48201,-0.2829"
         id="path4253" />
      <path
         style="opacity:1;fill:none;fill-rule:evenodd;stroke:#000000;stroke-width:1px;stroke-linecap:butt;stroke-linejoin:miter;stroke-opacity:1"
         d="m 114.32083,268.23696 c 3.87785,9.44073 12.0778,13.82677 18.78017,12.67891 16.25675,-2.78416 18.75997,-12.94535 18.75997,-12.94535"
         id="path4241" />
      <path
         style="opacity:1;fill:none;fill-rule:evenodd;stroke:#000000;stroke-width:1px;stroke-linecap:butt;stroke-linejoin:miter;stroke-opacity:1"
         d="m 108.78796,268.17035 c 0,0 3.96848,0.62181 5.55407,-0.30424 1.58559,-0.92605 2.93585,-2.21956 2.93585,-4.59742"
         id="path4239" />
    </g>
    <path
       transform="translate(91.949468,235.03651)"
       id="path5959"
       d=""
       style="opacity:1;fill:#000000;fill-opacity:1;stroke:#000000;stroke-width:2.63746691;stroke-opacity:1" />
  </g>
</svg>
